<svg xmlns="http://www.w3.org/2000/svg" viewBox="0 0 48 48">
  <path fill="#ffd600" d="M6,6h36v36H6V6z"/>
  <path fill="#000001" d="M29.5,30.2c0.7,1.1,1.2,2,2.6,2c1.1,0,1.8-0.6,1.8-1.3c0-0.9-0.7-1.2-2-1.7l-0.7-0.3c-2-0.8-3.3-1.9-3.3-4.1 c0-2,1.5-3.5,3.9-3.5c1.7,0,2.9,0.6,3.8,2.1l-2.1,1.3c-0.5-0.8-0.9-1.1-1.7-1.1c-0.8,0-1.3,0.5-1.3,1.1c0,0.8,0.5,1.1,1.6,1.6 l0.7,0.3c2.3,1,3.6,2,3.6,4.3c0,2.4-1.9,3.7-4.4,3.7c-2.5,0-4.1-1.2-4.9-2.8L29.5,30.2z M19.1,30.6c0.4,0.8,0.8,1.4,1.7,1.4 c0.9,0,1.4-0.3,1.4-1.7V22h3v8.4c0,3.1-1.8,4.5-4.4,4.5c-2.4,0-3.7-1.2-4.4-2.7L19.1,30.6z"/>
</svg> 